<svg width="40" height="40" fill="none">
    <g clip-path="url(#a)">
        <path fill="#996830" d="M30 20c0-5.523-4.477-10-10-10s-10 4.477-10 10c0 4.992 3.656 9.129 8.438 9.879V22.89h-2.54V20h2.54v-2.203c0-2.506 1.492-3.89 3.777-3.89 1.094 0 2.238.195 2.238.195v2.46h-1.262c-1.242 0-1.628.772-1.628 1.563V20h2.773l-.443 2.89h-2.33v6.989C26.343 29.129 30 24.992 30 20Z"/>
    </g>
    <circle cx="20" cy="20" r="19.5" stroke="#E6D8CC"/>
    <defs>
        <clipPath id="a">
            <path fill="#fff" d="M10 10h20v20H10z"/>
        </clipPath>
    </defs>
</svg>