<svg width="40" height="40" fill="none">
    <circle cx="20" cy="20" r="19.5" stroke="#996830" stroke-width="1.5"/>
    <g fill="#996830" clip-path="url(#a)">
        <path d="M19.98 11.801c2.665 0 2.977.012 4.03.06.975.043 1.502.205 1.854.344.468.182.8.396 1.149.745.348.348.566.68.744 1.148.135.353.301.88.345 1.854.047 1.053.06 1.366.06 4.031 0 2.666-.012 2.979-.06 4.032-.044.974-.206 1.501-.345 1.854-.182.467-.396.8-.744 1.148a3.047 3.047 0 0 1-1.149.745c-.352.134-.879.3-1.853.344-1.054.048-1.366.06-4.032.06-2.665 0-2.978-.012-4.031-.06-.975-.043-1.502-.206-1.854-.344a3.096 3.096 0 0 1-1.149-.745 3.05 3.05 0 0 1-.744-1.148c-.135-.353-.301-.88-.345-1.854-.047-1.053-.059-1.366-.059-4.032 0-2.665.012-2.978.06-4.031.043-.975.205-1.501.344-1.854.182-.467.396-.8.744-1.148a3.048 3.048 0 0 1 1.149-.745c.353-.135.88-.3 1.854-.344 1.053-.052 1.366-.06 4.031-.06Zm0-1.798c-2.71 0-3.05.012-4.116.06-1.061.047-1.786.217-2.42.463a4.864 4.864 0 0 0-1.766 1.152 4.948 4.948 0 0 0-1.152 1.767c-.246.633-.416 1.358-.464 2.423-.047 1.062-.06 1.402-.06 4.111 0 2.71.013 3.05.06 4.115.048 1.062.218 1.786.464 2.424a4.863 4.863 0 0 0 1.152 1.766 4.948 4.948 0 0 0 1.766 1.153c.634.245 1.359.416 2.424.463 1.066.048 1.402.06 4.115.06s3.05-.012 4.115-.06c1.061-.047 1.786-.218 2.424-.463a4.862 4.862 0 0 0 1.766-1.153 4.95 4.95 0 0 0 1.153-1.766c.245-.634.415-1.358.463-2.424.047-1.065.06-1.402.06-4.115 0-2.712-.013-3.05-.06-4.114-.048-1.062-.218-1.787-.463-2.424a4.864 4.864 0 0 0-1.153-1.767 4.948 4.948 0 0 0-1.766-1.152c-.634-.246-1.359-.416-2.424-.463-1.07-.044-1.41-.056-4.119-.056Z"/>
        <path d="M19.98 14.855a5.126 5.126 0 0 0 0 10.25 5.128 5.128 0 0 0 5.124-5.125 5.128 5.128 0 0 0-5.125-5.125Zm0 8.451a3.326 3.326 0 1 1-.002-6.652 3.326 3.326 0 0 1 .001 6.652ZM25.306 15.849a1.196 1.196 0 1 0 0-2.392 1.196 1.196 0 0 0 0 2.392Z"/>
    </g>
    <defs>
        <clipPath id="a">
            <path fill="#fff" d="M10 10h20v20H10z"/>
        </clipPath>
    </defs>
</svg>